<svg id="Layer_1" data-name="Layer 1" xmlns="http://www.w3.org/2000/svg" viewBox="0 0 182.7 67.6"><defs><style>.cls-1{fill:#fff;}.cls-2{fill:#65f1e4;}.cls-3{opacity:0.25;}</style></defs><title>identifID-logo</title><path class="cls-1" d="M155,31.1h8.7a12.5,12.5,0,0,1,5.1,1,14.2,14.2,0,0,1,4.1,2.8,13,13,0,0,1,2.8,4.1c.6,1.6,1,7.8,1,9.5a14.5,14.5,0,0,1-1,5.1,12,12,0,0,1-2.8,4.1,14.2,14.2,0,0,1-4.1,2.8,12.5,12.5,0,0,1-5.1,1H149.1L155,55h8.7a5.1,5.1,0,0,0,2.5-.5,5.7,5.7,0,0,0,2.1-1.3,7.7,7.7,0,0,0,1.4-2.1,7.1,7.1,0,0,0,.5-2.6,54.9,54.9,0,0,0-.5-7,6.7,6.7,0,0,0-3.5-3.4,5.1,5.1,0,0,0-2.5-.6H155Z"/><rect class="cls-2" x="7.2" y="42" width="6" height="19.5"/><path class="cls-2" d="M39.4,31.8V49.7a11.9,11.9,0,0,1-7.2,10.9,12.3,12.3,0,0,1-4.7.9,12.2,12.2,0,0,1-4.6-.9,13.9,13.9,0,0,1-3.8-2.5,11.9,11.9,0,0,1-2.5-3.8,10.6,10.6,0,0,1-1-4.6,11.8,11.8,0,0,1,.8-4.3,11.3,11.3,0,0,1,2.1-3.5,13,13,0,0,1,3.1-2.6A12.6,12.6,0,0,1,25.3,38a11.3,11.3,0,0,1,4.1-.1,11.4,11.4,0,0,1,4.1,1.5V31.8ZM33.5,49.7a5.9,5.9,0,0,0-.5-2.3,4.3,4.3,0,0,0-1.3-1.9,5,5,0,0,0-1.9-1.3,5.5,5.5,0,0,0-4.6,0,5.9,5.9,0,0,0-1.9,1.3,5.2,5.2,0,0,0-1.2,1.9,5.5,5.5,0,0,0,0,4.6,5.7,5.7,0,0,0,1.2,1.8,5.9,5.9,0,0,0,1.9,1.3,5.5,5.5,0,0,0,4.6,0,5,5,0,0,0,1.9-1.3A4.6,4.6,0,0,0,33,52,5.9,5.9,0,0,0,33.5,49.7Z"/><path class="cls-2" d="M63.9,43.4a11.5,11.5,0,0,0-9.3-5.6,12.9,12.9,0,0,0-5.5.7,12.3,12.3,0,0,0-4.6,3.3,11.5,11.5,0,0,0-2.6,5.8,12.3,12.3,0,0,0,.5,6.4,11.8,11.8,0,0,0,8.2,7.1,11.8,11.8,0,0,0,5.6.2,10.5,10.5,0,0,0,4.1-1.7l-3.4-5-1.5.7a5.8,5.8,0,0,1-5.6-1.1A5.8,5.8,0,0,1,48,51.7H65.3c.1-.4.1-.7.2-1V49.6A11.2,11.2,0,0,0,63.9,43.4ZM47.3,46.2A8,8,0,0,1,57,44a8.6,8.6,0,0,1,2.9,2.2Z"/><path class="cls-2" d="M74.6,38.5v.9a10.3,10.3,0,0,1,4-1.5,11.3,11.3,0,0,1,4.1.1,12.6,12.6,0,0,1,3.7,1.3,13,13,0,0,1,3.1,2.6,11.3,11.3,0,0,1,2.1,3.5,11.6,11.6,0,0,1,.8,4.2h0V61.5h-6V49.7a5.9,5.9,0,0,0-.4-2.3,5.3,5.3,0,0,0-1.3-1.9,5.9,5.9,0,0,0-1.9-1.3,5.5,5.5,0,0,0-4.6,0,7.6,7.6,0,0,0-1.9,1.2,5.7,5.7,0,0,0-1.2,1.8,5.4,5.4,0,0,0-.5,2.2h0v.2h0V61.5h-6V37.8h6Z"/><path class="cls-2" d="M101.2,49.7a5.9,5.9,0,0,0,.5,2.3,4.6,4.6,0,0,0,1.3,1.8,4.6,4.6,0,0,0,1.8,1.3,6.4,6.4,0,0,0,2.4.5h2v5.9h-2a12.3,12.3,0,0,1-4.7-.9,13.9,13.9,0,0,1-3.8-2.5,13.9,13.9,0,0,1-2.5-3.8,12.2,12.2,0,0,1-.9-4.6V31.8h5.9v6h6v5.9h-6v6Z"/><path class="cls-2" d="M129.8,51.7v9.8h-6V43.7a11.4,11.4,0,0,1,.9-4.6,12.8,12.8,0,0,1,2.6-3.8,11.2,11.2,0,0,1,3.8-2.6,11.8,11.8,0,0,1,4.6-.9h2v5.9h-2a5.9,5.9,0,0,0-2.3.5,5,5,0,0,0-1.9,1.3,7,7,0,0,0-1.3,1.9,5.9,5.9,0,0,0-.4,2.3v2h7.6v6Z"/><rect class="cls-1" x="143.2" y="42" width="6.5" height="19.52"/><circle class="cls-1" cx="146.5" cy="33.9" r="5.1"/><circle class="cls-2" cx="116.2" cy="33.9" r="5.1"/><circle class="cls-2" cx="10.2" cy="33.9" r="5.1"/><rect class="cls-2" x="112.9" y="42" width="6" height="19.53"/><g class="cls-3"><path class="cls-1" d="M134.5,30.2h-.4a1.1,1.1,0,0,1-.7-1.5A14.1,14.1,0,0,1,157,24.8a1.1,1.1,0,0,1-.2,1.6,1,1,0,0,1-1.6-.1,11.9,11.9,0,0,0-8.8-4,11.6,11.6,0,0,0-10.8,7.2A1.2,1.2,0,0,1,134.5,30.2Z"/><path class="cls-1" d="M154.3,45.4a1.4,1.4,0,0,1-1-.5,1.1,1.1,0,0,1,.3-1.6,19.5,19.5,0,0,0,2.4-2.6,1.1,1.1,0,0,1,1.6-.3,1.1,1.1,0,0,1,.3,1.6,14.2,14.2,0,0,1-2.9,3.1A1.1,1.1,0,0,1,154.3,45.4Z"/><path class="cls-1" d="M164.4,24.3a1.1,1.1,0,0,1-1.1-.6,19.6,19.6,0,0,0-6.9-7.4,1.1,1.1,0,0,1-.4-1.6,1.2,1.2,0,0,1,1.6-.4,21.2,21.2,0,0,1,7.8,8.2,1.2,1.2,0,0,1-.5,1.6Z"/><path class="cls-1" d="M129.2,22.7a.7.7,0,0,1-.6-.2,1.1,1.1,0,0,1-.3-1.6,21.5,21.5,0,0,1,18-9.7,22.2,22.2,0,0,1,3.7.3,1.2,1.2,0,0,1,1,1.4,1.2,1.2,0,0,1-1.4.9,18.3,18.3,0,0,0-3.3-.2,19.4,19.4,0,0,0-16.1,8.6A1,1,0,0,1,129.2,22.7Z"/><path class="cls-1" d="M158.2,53.3a1.2,1.2,0,0,1-.9-.5,1.2,1.2,0,0,1,.3-1.7,19.7,19.7,0,0,0,6.9-8.2,1.2,1.2,0,0,1,1.6-.6,1.1,1.1,0,0,1,.6,1.5,22.1,22.1,0,0,1-7.8,9.3Z"/><path class="cls-1" d="M174.7,29.6a1.2,1.2,0,0,1-1.1-1,27.7,27.7,0,0,0-8-15.4,1.4,1.4,0,0,1,0-1.7,1.4,1.4,0,0,1,1.7,0,30,30,0,0,1,8.6,16.7,1.2,1.2,0,0,1-1,1.4Z"/><path class="cls-1" d="M156.5,7.2H156a27,27,0,0,0-18.6-.3,1.2,1.2,0,0,1-1.5-.7,1.1,1.1,0,0,1,.7-1.5,29.5,29.5,0,0,1,20.3.3,1.2,1.2,0,0,1,.7,1.5A1.3,1.3,0,0,1,156.5,7.2Z"/><path class="cls-1" d="M119,25.2h-.4a1.1,1.1,0,0,1-.7-1.5,28.7,28.7,0,0,1,4.7-9,1.2,1.2,0,0,1,1.7-.2,1.2,1.2,0,0,1,.2,1.7,28.8,28.8,0,0,0-4.4,8.3A1.1,1.1,0,0,1,119,25.2Z"/></g></svg>